<mxfile host="app.diagrams.net" modified="2023-01-20T10:24:12.194Z" agent="5.0 (Windows NT 10.0; Win64; x64) AppleWebKit/537.36 (KHTML, like Gecko) Chrome/109.0.0.0 Safari/537.36" etag="8qYJETRYDcMaFLB3UmJc" version="20.8.8" type="github">
  <diagram name="Page-1" id="0OrnEd0XuT7KNRjszQmc">
    <mxGraphModel dx="1990" dy="715" grid="1" gridSize="10" guides="1" tooltips="1" connect="1" arrows="1" fold="1" page="1" pageScale="1" pageWidth="600" pageHeight="400" math="0" shadow="0">
      <root>
        <mxCell id="0" />
        <mxCell id="1" parent="0" />
        <mxCell id="yHmvrQq8Yse7LNzuKe87-25" style="edgeStyle=none;rounded=0;orthogonalLoop=1;jettySize=auto;html=1;exitX=0;exitY=0.98;exitDx=0;exitDy=0;exitPerimeter=0;endArrow=none;endFill=0;entryX=0.87;entryY=0.74;entryDx=0;entryDy=0;entryPerimeter=0;strokeWidth=4;" parent="1" source="yHmvrQq8Yse7LNzuKe87-13" target="yHmvrQq8Yse7LNzuKe87-9" edge="1">
          <mxGeometry relative="1" as="geometry">
            <mxPoint x="200.49999999999977" y="1059.9999999999998" as="sourcePoint" />
          </mxGeometry>
        </mxCell>
        <mxCell id="o7sRKN4U9nn-a68UC_t8-14" style="edgeStyle=none;rounded=0;orthogonalLoop=1;jettySize=auto;html=1;exitX=0.5;exitY=0;exitDx=0;exitDy=0;exitPerimeter=0;entryX=0.5;entryY=0.98;entryDx=0;entryDy=0;entryPerimeter=0;endArrow=none;endFill=0;strokeWidth=4;" parent="1" source="yHmvrQq8Yse7LNzuKe87-5" target="o7sRKN4U9nn-a68UC_t8-12" edge="1">
          <mxGeometry relative="1" as="geometry" />
        </mxCell>
        <mxCell id="yHmvrQq8Yse7LNzuKe87-5" value="vPC" style="shape=mxgraph.cisco.switches.workgroup_switch;html=1;dashed=0;fillColor=#f8cecc;strokeColor=#b85450;strokeWidth=2;verticalLabelPosition=bottom;verticalAlign=top;fontFamily=Helvetica;fontSize=20;" parent="1" vertex="1">
          <mxGeometry x="960" y="1060" width="101" height="50" as="geometry" />
        </mxCell>
        <mxCell id="o7sRKN4U9nn-a68UC_t8-1" style="edgeStyle=orthogonalEdgeStyle;rounded=0;orthogonalLoop=1;jettySize=auto;html=1;exitX=0.5;exitY=0;exitDx=0;exitDy=0;exitPerimeter=0;entryX=0.5;entryY=0.98;entryDx=0;entryDy=0;entryPerimeter=0;endArrow=none;endFill=0;strokeWidth=4;" parent="1" source="yHmvrQq8Yse7LNzuKe87-6" target="yHmvrQq8Yse7LNzuKe87-13" edge="1">
          <mxGeometry relative="1" as="geometry" />
        </mxCell>
        <mxCell id="yHmvrQq8Yse7LNzuKe87-6" value="vPC" style="shape=mxgraph.cisco.switches.workgroup_switch;html=1;dashed=0;fillColor=#f8cecc;strokeColor=#b85450;strokeWidth=2;verticalLabelPosition=bottom;verticalAlign=top;fontFamily=Helvetica;fontSize=20;" parent="1" vertex="1">
          <mxGeometry x="680" y="1060" width="101" height="50" as="geometry" />
        </mxCell>
        <mxCell id="yHmvrQq8Yse7LNzuKe87-9" value="vPC" style="shape=mxgraph.cisco.switches.workgroup_switch;html=1;dashed=0;fillColor=#d5e8d4;strokeColor=#82b366;strokeWidth=2;verticalLabelPosition=bottom;verticalAlign=top;fontFamily=Helvetica;fontSize=20;" parent="1" vertex="1">
          <mxGeometry x="150" y="660" width="101" height="50" as="geometry" />
        </mxCell>
        <mxCell id="yHmvrQq8Yse7LNzuKe87-10" value="vPC" style="shape=mxgraph.cisco.switches.workgroup_switch;html=1;dashed=0;fillColor=#d5e8d4;strokeColor=#82b366;strokeWidth=2;verticalLabelPosition=bottom;verticalAlign=top;fontFamily=Helvetica;fontSize=20;" parent="1" vertex="1">
          <mxGeometry x="400" y="660" width="101" height="50" as="geometry" />
        </mxCell>
        <mxCell id="yHmvrQq8Yse7LNzuKe87-27" style="edgeStyle=none;rounded=0;orthogonalLoop=1;jettySize=auto;html=1;exitX=0.98;exitY=0.5;exitDx=0;exitDy=0;exitPerimeter=0;entryX=0;entryY=0.5;entryDx=0;entryDy=0;entryPerimeter=0;endArrow=none;endFill=0;strokeWidth=4;" parent="1" source="yHmvrQq8Yse7LNzuKe87-13" target="yHmvrQq8Yse7LNzuKe87-14" edge="1">
          <mxGeometry relative="1" as="geometry" />
        </mxCell>
        <mxCell id="yHmvrQq8Yse7LNzuKe87-31" style="edgeStyle=none;rounded=0;orthogonalLoop=1;jettySize=auto;html=1;exitX=0;exitY=0.5;exitDx=0;exitDy=0;exitPerimeter=0;entryX=0.87;entryY=0.74;entryDx=0;entryDy=0;entryPerimeter=0;endArrow=none;endFill=0;strokeWidth=4;" parent="1" source="yHmvrQq8Yse7LNzuKe87-13" target="yHmvrQq8Yse7LNzuKe87-10" edge="1">
          <mxGeometry relative="1" as="geometry" />
        </mxCell>
        <mxCell id="yHmvrQq8Yse7LNzuKe87-13" value="eVPN leaf ZG" style="shape=mxgraph.cisco.switches.workgroup_switch;html=1;dashed=0;fillColor=#e1d5e7;strokeColor=#9673a6;strokeWidth=2;verticalLabelPosition=bottom;verticalAlign=top;fontFamily=Helvetica;fontSize=20;" parent="1" vertex="1">
          <mxGeometry x="680" y="800" width="101" height="50" as="geometry" />
        </mxCell>
        <mxCell id="yHmvrQq8Yse7LNzuKe87-28" style="edgeStyle=none;rounded=0;orthogonalLoop=1;jettySize=auto;html=1;exitX=0.5;exitY=0;exitDx=0;exitDy=0;exitPerimeter=0;entryX=0.5;entryY=0.98;entryDx=0;entryDy=0;entryPerimeter=0;endArrow=none;endFill=0;strokeWidth=4;" parent="1" source="yHmvrQq8Yse7LNzuKe87-14" target="yHmvrQq8Yse7LNzuKe87-16" edge="1">
          <mxGeometry relative="1" as="geometry" />
        </mxCell>
        <mxCell id="yHmvrQq8Yse7LNzuKe87-14" value="eVPN spine ZG" style="shape=mxgraph.cisco.switches.workgroup_switch;html=1;dashed=0;fillColor=#e1d5e7;strokeColor=#9673a6;strokeWidth=2;verticalLabelPosition=bottom;verticalAlign=top;fontFamily=Helvetica;fontSize=20;" parent="1" vertex="1">
          <mxGeometry x="960" y="800" width="101" height="50" as="geometry" />
        </mxCell>
        <mxCell id="o7sRKN4U9nn-a68UC_t8-7" style="edgeStyle=none;rounded=0;orthogonalLoop=1;jettySize=auto;html=1;exitX=1;exitY=0;exitDx=0;exitDy=0;exitPerimeter=0;entryX=0;entryY=0.98;entryDx=0;entryDy=0;entryPerimeter=0;endArrow=none;endFill=0;strokeWidth=4;" parent="1" source="yHmvrQq8Yse7LNzuKe87-15" target="o7sRKN4U9nn-a68UC_t8-6" edge="1">
          <mxGeometry relative="1" as="geometry" />
        </mxCell>
        <mxCell id="o7sRKN4U9nn-a68UC_t8-8" style="edgeStyle=none;rounded=0;orthogonalLoop=1;jettySize=auto;html=1;exitX=0.5;exitY=0;exitDx=0;exitDy=0;exitPerimeter=0;entryX=0.5;entryY=0.98;entryDx=0;entryDy=0;entryPerimeter=0;endArrow=none;endFill=0;strokeWidth=4;" parent="1" source="yHmvrQq8Yse7LNzuKe87-15" target="o7sRKN4U9nn-a68UC_t8-5" edge="1">
          <mxGeometry relative="1" as="geometry" />
        </mxCell>
        <mxCell id="yHmvrQq8Yse7LNzuKe87-15" value="eVPN leaf VZ" style="shape=mxgraph.cisco.switches.workgroup_switch;html=1;dashed=0;fillColor=#e1d5e7;strokeColor=#9673a6;strokeWidth=2;verticalLabelPosition=bottom;verticalAlign=top;fontFamily=Helvetica;fontSize=20;" parent="1" vertex="1">
          <mxGeometry x="680" y="660" width="101" height="50" as="geometry" />
        </mxCell>
        <mxCell id="yHmvrQq8Yse7LNzuKe87-29" style="edgeStyle=none;rounded=0;orthogonalLoop=1;jettySize=auto;html=1;exitX=0;exitY=0.5;exitDx=0;exitDy=0;exitPerimeter=0;entryX=0.98;entryY=0.5;entryDx=0;entryDy=0;entryPerimeter=0;endArrow=none;endFill=0;strokeWidth=4;" parent="1" source="yHmvrQq8Yse7LNzuKe87-16" target="yHmvrQq8Yse7LNzuKe87-15" edge="1">
          <mxGeometry relative="1" as="geometry" />
        </mxCell>
        <mxCell id="yHmvrQq8Yse7LNzuKe87-16" value="eVPN spine VZ" style="shape=mxgraph.cisco.switches.workgroup_switch;html=1;dashed=0;fillColor=#e1d5e7;strokeColor=#9673a6;strokeWidth=2;verticalLabelPosition=bottom;verticalAlign=top;fontFamily=Helvetica;fontSize=20;" parent="1" vertex="1">
          <mxGeometry x="960" y="660" width="101" height="50" as="geometry" />
        </mxCell>
        <mxCell id="o7sRKN4U9nn-a68UC_t8-10" style="edgeStyle=none;rounded=0;orthogonalLoop=1;jettySize=auto;html=1;exitX=0.87;exitY=0.74;exitDx=0;exitDy=0;exitPerimeter=0;entryX=0.28;entryY=0.023;entryDx=0;entryDy=0;entryPerimeter=0;endArrow=none;endFill=0;strokeWidth=4;" parent="1" source="o7sRKN4U9nn-a68UC_t8-3" target="yHmvrQq8Yse7LNzuKe87-15" edge="1">
          <mxGeometry relative="1" as="geometry" />
        </mxCell>
        <mxCell id="o7sRKN4U9nn-a68UC_t8-3" value="vPC" style="shape=mxgraph.cisco.switches.workgroup_switch;html=1;dashed=0;fillColor=#d5e8d4;strokeColor=#82b366;strokeWidth=2;verticalLabelPosition=bottom;verticalAlign=top;fontFamily=Helvetica;fontSize=20;" parent="1" vertex="1">
          <mxGeometry x="400" y="470" width="101" height="50" as="geometry" />
        </mxCell>
        <mxCell id="o7sRKN4U9nn-a68UC_t8-9" style="edgeStyle=none;rounded=0;orthogonalLoop=1;jettySize=auto;html=1;exitX=0.87;exitY=0.74;exitDx=0;exitDy=0;exitPerimeter=0;entryX=0.16;entryY=0.23;entryDx=0;entryDy=0;entryPerimeter=0;endArrow=none;endFill=0;strokeWidth=4;" parent="1" source="o7sRKN4U9nn-a68UC_t8-4" target="yHmvrQq8Yse7LNzuKe87-15" edge="1">
          <mxGeometry relative="1" as="geometry" />
        </mxCell>
        <mxCell id="o7sRKN4U9nn-a68UC_t8-4" value="vPC" style="shape=mxgraph.cisco.switches.workgroup_switch;html=1;dashed=0;fillColor=#d5e8d4;strokeColor=#82b366;strokeWidth=2;verticalLabelPosition=bottom;verticalAlign=top;fontFamily=Helvetica;fontSize=20;" parent="1" vertex="1">
          <mxGeometry x="150" y="470" width="101" height="50" as="geometry" />
        </mxCell>
        <mxCell id="o7sRKN4U9nn-a68UC_t8-5" value="vPC" style="shape=mxgraph.cisco.switches.workgroup_switch;html=1;dashed=0;fillColor=#f8cecc;strokeColor=#b85450;strokeWidth=2;verticalLabelPosition=bottom;verticalAlign=top;fontFamily=Helvetica;fontSize=20;" parent="1" vertex="1">
          <mxGeometry x="680" y="470" width="101" height="50" as="geometry" />
        </mxCell>
        <mxCell id="o7sRKN4U9nn-a68UC_t8-6" value="vPC" style="shape=mxgraph.cisco.switches.workgroup_switch;html=1;dashed=0;fillColor=#f8cecc;strokeColor=#b85450;strokeWidth=2;verticalLabelPosition=bottom;verticalAlign=top;fontFamily=Helvetica;fontSize=20;" parent="1" vertex="1">
          <mxGeometry x="960" y="470" width="101" height="50" as="geometry" />
        </mxCell>
        <mxCell id="o7sRKN4U9nn-a68UC_t8-13" style="edgeStyle=none;rounded=0;orthogonalLoop=1;jettySize=auto;html=1;exitX=0.5;exitY=0;exitDx=0;exitDy=0;exitPerimeter=0;endArrow=none;endFill=0;strokeWidth=4;" parent="1" source="o7sRKN4U9nn-a68UC_t8-12" target="yHmvrQq8Yse7LNzuKe87-14" edge="1">
          <mxGeometry relative="1" as="geometry" />
        </mxCell>
        <mxCell id="o7sRKN4U9nn-a68UC_t8-12" value="eVPN leaf ZG" style="shape=mxgraph.cisco.switches.workgroup_switch;html=1;dashed=0;fillColor=#e1d5e7;strokeColor=#9673a6;strokeWidth=2;verticalLabelPosition=bottom;verticalAlign=top;fontFamily=Helvetica;fontSize=20;" parent="1" vertex="1">
          <mxGeometry x="960" y="940" width="101" height="50" as="geometry" />
        </mxCell>
      </root>
    </mxGraphModel>
  </diagram>
</mxfile>
